<svg id="clock-circular-outline" xmlns="http://www.w3.org/2000/svg" width="86.189" height="86.189" viewBox="0 0 86.189 86.189">
  <g id="Group_71" data-name="Group 71">
    <path id="Path_50" data-name="Path 50" d="M43.095,0A43.095,43.095,0,1,0,86.189,43.095,43.143,43.143,0,0,0,43.095,0Zm0,77.019A33.925,33.925,0,1,1,77.02,43.095,33.964,33.964,0,0,1,43.095,77.019Z" fill="#007ea7"/>
    <path id="Path_51" data-name="Path 51" d="M70.529,43.664H51.163V20.378a3.548,3.548,0,1,0-7.1,0V47.213a3.548,3.548,0,0,0,3.548,3.548H70.529a3.548,3.548,0,1,0,0-7.1Z" transform="translate(-4.976 -1.9)" fill="#007ea7"/>
  </g>
</svg>
