<svg id="computer-screen" xmlns="http://www.w3.org/2000/svg" width="100.989" height="84.291" viewBox="0 0 100.989 84.291">
  <path id="Path_48" data-name="Path 48" d="M95.5,50.74v-.148H5.435v.148A5.961,5.961,0,0,0,0,56.073v59.195a5.809,5.809,0,0,0,.791,2.962,5.521,5.521,0,0,0,5.139,3.015h32.51v8.2H32.263a2.719,2.719,0,0,0,0,5.439H68.676a2.72,2.72,0,1,0,0-5.439H62.5v-8.2H95.01a5.5,5.5,0,0,0,5.139-3.015,5.966,5.966,0,0,0,.84-2.962V56.073A6.1,6.1,0,0,0,95.5,50.74Zm0,5.829v58.7c0,.348-.148.5-.494.5H5.929c-.346,0-.494-.148-.494-.5V56.073H95.5v.5Z" transform="translate(0 -50.592)" fill="#007ea7"/>
</svg>
