<svg xmlns="http://www.w3.org/2000/svg" width="20.797" height="20.797" viewBox="0 0 20.797 20.797">
  <g id="correct" transform="translate(-0.008 0)">
    <path id="Path_56" data-name="Path 56" d="M26.791,13.035,24.241,11.9l-1.135-2.55-2.774.29L18.075,8,15.816,9.641l-2.773-.29L11.909,11.9l-2.55,1.135.29,2.774L8.012,18.067l1.637,2.258L9.359,23.1l2.549,1.134,1.135,2.55,2.774-.29,2.257,1.637,2.258-1.637,2.773.29,1.134-2.549,2.55-1.135-.29-2.774,1.637-2.257L26.5,15.808ZM16.062,22.092l-2.848-2.848.949-.946,1.9,1.9L21.754,14.5l.949.949Zm0,0" transform="translate(-7.669 -7.668)" fill="#57a4ff"/>
    <g id="Group_84" data-name="Group 84" transform="translate(0.008 0)">
      <path id="Path_57" data-name="Path 57" d="M20.741,10.2,19.179,8.047,19.456,5.4a.336.336,0,0,0-.2-.341L16.827,3.978,15.745,1.547a.337.337,0,0,0-.341-.2l-2.647.277L10.6.064a.335.335,0,0,0-.394,0L8.055,1.626,5.408,1.349a.34.34,0,0,0-.341.2L3.985,3.978,1.554,5.06a.335.335,0,0,0-.2.341l.277,2.646L.071,10.2a.335.335,0,0,0,0,.394L1.633,12.75,1.356,15.4a.335.335,0,0,0,.2.341L3.985,16.82l1.082,2.431a.339.339,0,0,0,.341.2l2.646-.277,2.155,1.562a.335.335,0,0,0,.394,0l2.154-1.562,2.647.277a.337.337,0,0,0,.341-.2l1.082-2.431,2.431-1.082a.336.336,0,0,0,.2-.341l-.277-2.647L20.741,10.6a.335.335,0,0,0,0-.394ZM18.56,12.46a.335.335,0,0,0-.062.232l.264,2.532L16.437,16.26a.333.333,0,0,0-.171.17l-1.035,2.326L12.7,18.491a.335.335,0,0,0-.231.062l-2.061,1.494L8.345,18.554a.332.332,0,0,0-.2-.064.218.218,0,0,0-.034,0l-2.533.265L4.547,16.43a.335.335,0,0,0-.17-.171L2.049,15.224l.264-2.532a.336.336,0,0,0-.062-.232L.757,10.4,2.251,8.337a.336.336,0,0,0,.062-.232L2.049,5.574,4.375,4.538a.332.332,0,0,0,.17-.17L5.581,2.042l2.533.265a.338.338,0,0,0,.231-.062L10.406.75l2.062,1.494a.337.337,0,0,0,.231.062l2.532-.265,1.035,2.326a.335.335,0,0,0,.17.17l2.326,1.035L18.5,8.106a.335.335,0,0,0,.062.232L20.055,10.4Zm0,0" transform="translate(-0.008 0)" fill="#1e81ce"/>
      <path id="Path_58" data-name="Path 58" d="M133.172,155.064a.335.335,0,0,0-.474,0l-5.455,5.455-1.661-1.658a.335.335,0,0,0-.474,0l-.951.945a.335.335,0,0,0,0,.475L127,163.128a.336.336,0,0,0,.474,0l6.641-6.642a.336.336,0,0,0,0-.474Zm-5.929,7.354-2.373-2.373.474-.473,1.662,1.659a.335.335,0,0,0,.474,0l5.455-5.455.475.475Zm0,0" transform="translate(-118.857 -148.468)" fill="#1e81ce"/>
    </g>
  </g>
</svg>
