<svg id="phone-receiver" xmlns="http://www.w3.org/2000/svg" width="85.116" height="85.061" viewBox="0 0 85.116 85.061">
  <g id="Group_67" data-name="Group 67" transform="translate(0 0)">
    <path id="Path_49" data-name="Path 49" d="M85.076,67.317a4.114,4.114,0,0,1-1.261,3.6L71.83,82.815a6.745,6.745,0,0,1-2.117,1.532,8.75,8.75,0,0,1-2.568.811q-.09,0-.541.045t-1.171.045a41.538,41.538,0,0,1-5.542-.586,42.086,42.086,0,0,1-9.371-2.883,78.658,78.658,0,0,1-12.57-6.893A93.718,93.718,0,0,1,22.992,62.271,98.739,98.739,0,0,1,12.54,50.378a84.744,84.744,0,0,1-6.668-10.5,56.538,56.538,0,0,1-3.785-8.74A46.372,46.372,0,0,1,.375,24.382a22.318,22.318,0,0,1-.36-4.46q.09-1.622.09-1.8a8.758,8.758,0,0,1,.811-2.568,6.752,6.752,0,0,1,1.532-2.118L14.432,1.449A3.969,3.969,0,0,1,17.315.188a3.362,3.362,0,0,1,2.072.676A6.264,6.264,0,0,1,20.92,2.531l9.641,18.292a4.385,4.385,0,0,1,.451,3.154A5.616,5.616,0,0,1,29.48,26.86l-4.415,4.415a1.5,1.5,0,0,0-.315.586,2.224,2.224,0,0,0-.135.676,16.27,16.27,0,0,0,1.622,4.325,39.7,39.7,0,0,0,3.334,5.271,58.528,58.528,0,0,0,6.4,7.163,59.685,59.685,0,0,0,7.209,6.443,41.628,41.628,0,0,0,5.271,3.379,14.01,14.01,0,0,0,3.244,1.306l1.126.225a2.148,2.148,0,0,0,.586-.135,1.5,1.5,0,0,0,.586-.316l5.136-5.226a5.52,5.52,0,0,1,3.785-1.442,4.708,4.708,0,0,1,2.433.541h.09l17.39,10.272A4.533,4.533,0,0,1,85.076,67.317Z" transform="translate(0 -0.188)" fill="#007ea7"/>
  </g>
</svg>
