<svg xmlns="http://www.w3.org/2000/svg" width="103.451" height="98.934" viewBox="0 0 103.451 98.934">
  <path id="star" d="M56.72,4.153,68.388,27.795a5.569,5.569,0,0,0,4.195,3.047l26.091,3.791a5.57,5.57,0,0,1,3.088,9.5l-18.88,18.4a5.571,5.571,0,0,0-1.6,4.931l4.456,25.986a5.572,5.572,0,0,1-8.084,5.874L54.319,87.06a5.577,5.577,0,0,0-5.185,0L25.8,99.328a5.571,5.571,0,0,1-8.084-5.874L22.17,67.468a5.571,5.571,0,0,0-1.6-4.931l-18.88-18.4a5.57,5.57,0,0,1,3.088-9.5l26.091-3.791a5.569,5.569,0,0,0,4.2-3.047L46.731,4.153A5.569,5.569,0,0,1,56.72,4.153Z" transform="translate(0 -1.047)" fill="#ed8a19"/>
</svg>
