<svg xmlns="http://www.w3.org/2000/svg" width="151.386" height="23.828" viewBox="0 0 151.386 23.828">
  <g id="Group_207" data-name="Group 207" transform="translate(15209 -798)">
    <path id="star" d="M13.661,1.795l2.81,5.694a1.341,1.341,0,0,0,1.01.734l6.284.913a1.342,1.342,0,0,1,.744,2.288l-4.547,4.432a1.342,1.342,0,0,0-.386,1.188L20.65,23.3A1.342,1.342,0,0,1,18.7,24.717l-5.62-2.955a1.343,1.343,0,0,0-1.249,0l-5.62,2.955A1.342,1.342,0,0,1,4.267,23.3L5.34,17.044a1.342,1.342,0,0,0-.386-1.188L.407,11.424a1.341,1.341,0,0,1,.744-2.288l6.284-.913a1.341,1.341,0,0,0,1.01-.734l2.81-5.694A1.341,1.341,0,0,1,13.661,1.795Z" transform="translate(-15209.001 796.953)" fill="#ed8a19"/>
    <path id="star-2" data-name="star" d="M13.661,1.795l2.81,5.694a1.341,1.341,0,0,0,1.01.734l6.284.913a1.342,1.342,0,0,1,.744,2.288l-4.547,4.432a1.342,1.342,0,0,0-.386,1.188L20.65,23.3A1.342,1.342,0,0,1,18.7,24.717l-5.62-2.955a1.343,1.343,0,0,0-1.249,0l-5.62,2.955A1.342,1.342,0,0,1,4.267,23.3L5.34,17.044a1.342,1.342,0,0,0-.386-1.188L.407,11.424a1.341,1.341,0,0,1,.744-2.288l6.284-.913a1.341,1.341,0,0,0,1.01-.734l2.81-5.694A1.341,1.341,0,0,1,13.661,1.795Z" transform="translate(-15177.383 796.953)" fill="#ed8a19"/>
    <path id="star-3" data-name="star" d="M13.661,1.795l2.81,5.694a1.341,1.341,0,0,0,1.01.734l6.284.913a1.342,1.342,0,0,1,.744,2.288l-4.547,4.432a1.342,1.342,0,0,0-.386,1.188L20.65,23.3A1.342,1.342,0,0,1,18.7,24.717l-5.62-2.955a1.343,1.343,0,0,0-1.249,0l-5.62,2.955A1.342,1.342,0,0,1,4.267,23.3L5.34,17.044a1.342,1.342,0,0,0-.386-1.188L.407,11.424a1.341,1.341,0,0,1,.744-2.288l6.284-.913a1.341,1.341,0,0,0,1.01-.734l2.81-5.694A1.341,1.341,0,0,1,13.661,1.795Z" transform="translate(-15145.766 796.953)" fill="#ed8a19"/>
    <path id="star-4" data-name="star" d="M13.661,1.795l2.81,5.694a1.341,1.341,0,0,0,1.01.734l6.284.913a1.342,1.342,0,0,1,.744,2.288l-4.547,4.432a1.342,1.342,0,0,0-.386,1.188L20.65,23.3A1.342,1.342,0,0,1,18.7,24.717l-5.62-2.955a1.343,1.343,0,0,0-1.249,0l-5.62,2.955A1.342,1.342,0,0,1,4.267,23.3L5.34,17.044a1.342,1.342,0,0,0-.386-1.188L.407,11.424a1.341,1.341,0,0,1,.744-2.288l6.284-.913a1.341,1.341,0,0,0,1.01-.734l2.81-5.694A1.341,1.341,0,0,1,13.661,1.795Z" transform="translate(-15114.148 796.953)" fill="#ed8a19"/>
    <path id="star-5" data-name="star" d="M13.661,1.795l2.81,5.694a1.341,1.341,0,0,0,1.01.734l6.284.913a1.342,1.342,0,0,1,.744,2.288l-4.547,4.432a1.342,1.342,0,0,0-.386,1.188L20.65,23.3A1.342,1.342,0,0,1,18.7,24.717l-5.62-2.955a1.343,1.343,0,0,0-1.249,0l-5.62,2.955A1.342,1.342,0,0,1,4.267,23.3L5.34,17.044a1.342,1.342,0,0,0-.386-1.188L.407,11.424a1.341,1.341,0,0,1,.744-2.288l6.284-.913a1.341,1.341,0,0,0,1.01-.734l2.81-5.694A1.341,1.341,0,0,1,13.661,1.795Z" transform="translate(-15082.53 796.953)" fill="#ed8a19"/>
  </g>
</svg>
