<svg xmlns="http://www.w3.org/2000/svg" width="56.533" height="23.828" viewBox="0 0 56.533 23.828">
  <g id="star2" transform="translate(-1386.001 -2343)">
    <path id="star" d="M13.661,1.795l2.81,5.694a1.341,1.341,0,0,0,1.01.734l6.284.913a1.342,1.342,0,0,1,.744,2.288l-4.547,4.432a1.342,1.342,0,0,0-.386,1.188L20.65,23.3A1.342,1.342,0,0,1,18.7,24.717l-5.62-2.955a1.343,1.343,0,0,0-1.249,0l-5.62,2.955A1.342,1.342,0,0,1,4.267,23.3L5.34,17.044a1.342,1.342,0,0,0-.386-1.188L.407,11.424a1.341,1.341,0,0,1,.744-2.288l6.284-.913a1.341,1.341,0,0,0,1.01-.734l2.81-5.694A1.341,1.341,0,0,1,13.661,1.795Z" transform="translate(1386 2341.953)" fill="#ed8a19"/>
    <path id="star-2" data-name="star" d="M13.661,1.795l2.81,5.694a1.341,1.341,0,0,0,1.01.734l6.284.913a1.342,1.342,0,0,1,.744,2.288l-4.547,4.432a1.342,1.342,0,0,0-.386,1.188L20.65,23.3A1.342,1.342,0,0,1,18.7,24.717l-5.62-2.955a1.343,1.343,0,0,0-1.249,0l-5.62,2.955A1.342,1.342,0,0,1,4.267,23.3L5.34,17.044a1.342,1.342,0,0,0-.386-1.188L.407,11.424a1.341,1.341,0,0,1,.744-2.288l6.284-.913a1.341,1.341,0,0,0,1.01-.734l2.81-5.694A1.341,1.341,0,0,1,13.661,1.795Z" transform="translate(1417.617 2341.953)" fill="#ed8a19"/>
  </g>
</svg>
